<?xml version="1.0" encoding="UTF-8" standalone="no"?>
<!-- Created with Inkscape (http://www.inkscape.org/) -->

<svg
   xmlns:dc="http://purl.org/dc/elements/1.1/"
   xmlns:cc="http://creativecommons.org/ns#"
   xmlns:rdf="http://www.w3.org/1999/02/22-rdf-syntax-ns#"
   xmlns:svg="http://www.w3.org/2000/svg"
   xmlns="http://www.w3.org/2000/svg"
   xmlns:sodipodi="http://sodipodi.sourceforge.net/DTD/sodipodi-0.dtd"
   xmlns:inkscape="http://www.inkscape.org/namespaces/inkscape"
   width="152mm"
   height="152mm"
   viewBox="0 0 152 152"
   version="1.1"
   id="svg8"
   sodipodi:docname="aquireServerIcon.svg"
   inkscape:version="0.92.3 (2405546, 2018-03-11)">
  <defs
     id="defs2" />
  <sodipodi:namedview
     id="base"
     pagecolor="#ffffff"
     bordercolor="#666666"
     borderopacity="1.0"
     inkscape:pageopacity="0.0"
     inkscape:pageshadow="2"
     inkscape:zoom="1.4"
     inkscape:cx="367.30099"
     inkscape:cy="266.3337"
     inkscape:document-units="mm"
     inkscape:current-layer="layer1"
     showgrid="false"
     showguides="true"
     inkscape:guide-bbox="true"
     inkscape:window-width="1920"
     inkscape:window-height="1027"
     inkscape:window-x="-8"
     inkscape:window-y="-8"
     inkscape:window-maximized="1" />
  <metadata
     id="metadata5">
    <rdf:RDF>
      <cc:Work
         rdf:about="">
        <dc:format>image/svg+xml</dc:format>
        <dc:type
           rdf:resource="http://purl.org/dc/dcmitype/StillImage" />
        <dc:title></dc:title>
      </cc:Work>
    </rdf:RDF>
  </metadata>
  <g
     inkscape:label="Layer 1"
     inkscape:groupmode="layer"
     id="layer1"
     transform="translate(0,-145.00002)">
    <path
       style="opacity:1;fill:#96b4bc;fill-opacity:1;stroke:none;stroke-width:19.77188873;stroke-linecap:round;stroke-linejoin:miter;stroke-miterlimit:4;stroke-dasharray:none;stroke-opacity:1;paint-order:normal"
       d="M 287.24414 3.7792969 A 283.46457 283.46457 0 0 0 3.7792969 287.24414 A 283.46457 283.46457 0 0 0 287.24414 570.70898 A 283.46457 283.46457 0 0 0 570.70898 287.24414 A 283.46457 283.46457 0 0 0 287.24414 3.7792969 z M 129.29492 125.86914 L 422.15625 125.86914 C 428.72636 125.86914 434.01562 131.15645 434.01562 137.72656 L 434.01562 205.76172 C 434.01562 212.33184 428.72636 217.62109 422.15625 217.62109 L 129.29492 217.62109 C 122.72481 217.62109 117.43359 212.33184 117.43359 205.76172 L 117.43359 137.72656 C 117.43359 131.15645 122.72481 125.86914 129.29492 125.86914 z M 155.86719 161.76367 A 11.118184 11.118184 0 0 0 144.75 172.88281 A 11.118184 11.118184 0 0 0 155.86719 184.00195 A 11.118184 11.118184 0 0 0 166.98633 172.88281 A 11.118184 11.118184 0 0 0 155.86719 161.76367 z M 191.07031 161.76562 C 184.5002 161.76563 179.20898 166.7253 179.20898 172.88477 C 179.20898 179.04423 184.5002 184.00391 191.07031 184.00391 L 206.57227 184.00391 C 213.14237 184.00391 218.43164 179.04423 218.43164 172.88477 C 218.43164 166.7253 213.14237 161.76562 206.57227 161.76562 L 191.07031 161.76562 z M 129.29492 237.04883 L 422.15625 237.04883 C 428.72636 237.04883 434.01562 242.33809 434.01562 248.9082 L 434.01562 307.15039 C 431.11187 306.7844 428.18883 306.59148 425.26172 306.57227 C 405.39865 306.60221 386.40051 314.62589 372.62891 328.80273 L 129.29492 328.80273 C 122.72481 328.80273 117.43359 323.51152 117.43359 316.94141 L 117.43359 248.9082 C 117.43359 242.33809 122.72481 237.04883 129.29492 237.04883 z M 155.86719 272.94531 C 149.72656 272.94569 144.74932 277.92383 144.75 284.06445 C 144.75037 290.20433 149.72731 295.18127 155.86719 295.18164 C 162.00781 295.18232 166.98596 290.20508 166.98633 284.06445 C 166.987 277.92309 162.00856 272.94464 155.86719 272.94531 z M 191.07031 272.94727 C 184.5002 272.94727 179.20898 277.90693 179.20898 284.06641 C 179.20898 290.22588 184.5002 295.18359 191.07031 295.18359 L 206.57227 295.18359 C 213.14237 295.18359 218.43164 290.22588 218.43164 284.06641 C 218.43164 277.90693 213.14237 272.94727 206.57227 272.94727 L 191.07031 272.94727 z M 426.82422 320.07227 A 59.083092 59.083085 0 0 1 485.9082 379.15625 A 59.083092 59.083085 0 0 1 426.82422 438.23828 A 59.083092 59.083085 0 0 1 367.74023 379.15625 A 59.083092 59.083085 0 0 1 426.82422 320.07227 z M 417.94336 343.19727 L 417.94336 371.46484 L 389.90625 371.46484 L 389.90625 388.24219 L 417.94336 388.24219 L 417.94336 416.12695 L 434.7207 416.12695 L 434.7207 388.24219 L 462.83398 388.24219 L 462.83398 371.46484 L 434.7207 371.46484 L 434.7207 343.19727 L 417.94336 343.19727 z M 129.29297 348.23438 L 356.92578 348.23438 C 352.31502 357.8731 352.09895 368.3987 352.06836 379.06445 C 352.0993 403.72038 364.78064 426.66897 385.73242 439.98438 L 129.29492 439.98438 C 122.72481 439.98437 117.43359 434.6951 117.43359 428.125 L 117.43359 360.08984 C 117.43359 353.51973 122.72288 348.24957 129.29297 348.23438 z M 155.86719 384.12695 C 149.72656 384.12733 144.74932 389.10742 144.75 395.24805 C 144.75037 401.38792 149.72731 406.36486 155.86719 406.36523 C 162.00781 406.36591 166.98596 401.38867 166.98633 395.24805 C 166.987 389.10668 162.00856 384.12628 155.86719 384.12695 z M 191.07031 384.12891 C 184.5002 384.12891 179.20898 389.09053 179.20898 395.25 C 179.20898 401.40948 184.5002 406.36719 191.07031 406.36719 L 206.57227 406.36719 C 213.14237 406.36718 218.43164 401.40948 218.43164 395.25 C 218.43164 389.09053 213.14237 384.12891 206.57227 384.12891 L 191.07031 384.12891 z "
       transform="matrix(0.26458333,0,0,0.26458333,0,145.00002)"
       id="path4553" />
    <g
       id="g4627">
      <g
         transform="matrix(0.98056207,0,0,0.98056205,1.9766869,5.1211047)"
         id="g4601" />
      <g
         id="g4618" />
    </g>
  </g>
</svg>
