<?xml version="1.0" encoding="UTF-8" standalone="no"?>
<!-- Created with Inkscape (http://www.inkscape.org/) -->

<svg
   xmlns:dc="http://purl.org/dc/elements/1.1/"
   xmlns:cc="http://creativecommons.org/ns#"
   xmlns:rdf="http://www.w3.org/1999/02/22-rdf-syntax-ns#"
   xmlns:svg="http://www.w3.org/2000/svg"
   xmlns="http://www.w3.org/2000/svg"
   xmlns:sodipodi="http://sodipodi.sourceforge.net/DTD/sodipodi-0.dtd"
   xmlns:inkscape="http://www.inkscape.org/namespaces/inkscape"
   width="152mm"
   height="152mm"
   viewBox="0 0 152 152"
   version="1.1"
   id="svg8"
   sodipodi:docname="defendServerIcon.svg"
   inkscape:version="0.92.3 (2405546, 2018-03-11)">
  <defs
     id="defs2" />
  <sodipodi:namedview
     id="base"
     pagecolor="#ffffff"
     bordercolor="#666666"
     borderopacity="1.0"
     inkscape:pageopacity="0.0"
     inkscape:pageshadow="2"
     inkscape:zoom="1.4"
     inkscape:cx="403.62002"
     inkscape:cy="296.67169"
     inkscape:document-units="mm"
     inkscape:current-layer="layer1"
     showgrid="false"
     showguides="true"
     inkscape:guide-bbox="true"
     inkscape:window-width="1920"
     inkscape:window-height="1027"
     inkscape:window-x="-8"
     inkscape:window-y="-8"
     inkscape:window-maximized="1" />
  <metadata
     id="metadata5">
    <rdf:RDF>
      <cc:Work
         rdf:about="">
        <dc:format>image/svg+xml</dc:format>
        <dc:type
           rdf:resource="http://purl.org/dc/dcmitype/StillImage" />
        <dc:title></dc:title>
      </cc:Work>
    </rdf:RDF>
  </metadata>
  <g
     inkscape:label="Layer 1"
     inkscape:groupmode="layer"
     id="layer1"
     transform="translate(0,-145.00002)">
    <path
       style="opacity:1;fill:#c7f0fa;fill-opacity:1;stroke:none;stroke-width:19.77188873;stroke-linecap:round;stroke-linejoin:miter;stroke-miterlimit:4;stroke-dasharray:none;stroke-opacity:1;paint-order:normal"
       d="M 287.24414 3.7792969 A 283.46457 283.46457 0 0 0 3.7792969 287.24414 A 283.46457 283.46457 0 0 0 287.24414 570.70898 A 283.46457 283.46457 0 0 0 570.70898 287.24414 A 283.46457 283.46457 0 0 0 287.24414 3.7792969 z M 288.07031 105.74609 L 293.04883 107.71094 C 349.43881 129.97832 405.49583 142.9895 461.34961 145.49609 L 473.91602 146.05664 L 474.78125 158.60547 C 481.77506 259.59412 467.7667 336.75307 435.75586 394.52148 C 403.74499 452.2899 353.67523 489.7147 292.53906 511.18945 L 288.14062 512.74219 L 283.68359 511.35547 C 198.16903 484.78143 151.38554 431.85882 127.56445 368.53516 C 103.74336 305.21152 101.1761 232.04894 98.474609 160.11133 L 97.947266 146.13867 L 111.91211 145.49609 C 170.24209 142.80368 226.84501 128.0466 283.04297 107.57812 L 288.07031 105.74609 z M 287.75195 135.73828 C 235.8777 154.32302 182.61129 168.04724 127.24609 172.32227 C 129.89124 239.55778 133.79835 305.01764 153.95703 358.60547 C 175.02371 414.6071 212.35621 458.16204 287.68945 482.82617 C 341.58495 462.96284 383.33679 430.92947 411.08398 380.85547 C 438.41035 331.54094 451.99606 263.68755 447.18555 172.48828 C 393.83873 168.64717 340.66087 156.13855 287.75195 135.73828 z M 195.11914 181.13867 L 379.375 181.13867 C 383.50858 181.13867 386.83398 184.46409 386.83398 188.59766 L 386.83398 231.40234 C 386.83398 235.53591 383.50858 238.86328 379.375 238.86328 L 195.11914 238.86328 C 190.98555 238.86328 187.6582 235.53591 187.6582 231.40234 L 187.6582 188.59766 C 187.6582 184.46409 190.98555 181.13867 195.11914 181.13867 z M 211.83789 203.7207 A 6.9950142 6.9949767 0 0 0 204.84375 210.7168 A 6.9950142 6.9949767 0 0 0 211.83789 217.71094 A 6.9950142 6.9949767 0 0 0 218.83398 210.7168 A 6.9950142 6.9949767 0 0 0 211.83789 203.7207 z M 233.98633 203.72266 C 229.85274 203.72266 226.52344 206.84355 226.52344 210.71875 C 226.52344 214.59397 229.85274 217.71289 233.98633 217.71289 L 243.74023 217.71289 C 247.87382 217.71289 251.20117 214.59397 251.20117 210.71875 C 251.20117 206.84355 247.87382 203.72266 243.74023 203.72266 L 233.98633 203.72266 z M 195.11914 251.08789 L 379.375 251.08789 C 383.50858 251.08789 386.83398 254.41527 386.83398 258.54883 L 386.83398 301.35156 C 386.83398 305.48517 383.50858 308.81445 379.375 308.81445 L 195.11914 308.81445 C 190.98555 308.81445 187.6582 305.48517 187.6582 301.35156 L 187.6582 258.54883 C 187.6582 254.41527 190.98555 251.08789 195.11914 251.08789 z M 211.83789 273.67188 A 6.995014 6.9949765 0 0 0 204.84375 280.66602 A 6.995014 6.9949765 0 0 0 211.83789 287.66211 A 6.995014 6.9949765 0 0 0 218.83398 280.66602 A 6.995014 6.9949765 0 0 0 211.83789 273.67188 z M 233.98633 273.67188 C 229.85274 273.67188 226.52344 276.79277 226.52344 280.66797 C 226.52344 284.54319 229.85274 287.66211 233.98633 287.66211 L 243.74023 287.66211 C 247.87382 287.66211 251.20117 284.54319 251.20117 280.66797 C 251.20117 276.79277 247.87382 273.67188 243.74023 273.67188 L 233.98633 273.67188 z M 195.11914 321.03711 L 379.375 321.03711 C 383.50858 321.03711 386.83398 324.36449 386.83398 328.49805 L 386.83398 371.30273 C 386.83398 375.43632 383.50858 378.76367 379.375 378.76367 L 195.11914 378.76367 C 190.98555 378.76367 187.6582 375.43632 187.6582 371.30273 L 187.6582 328.49805 C 187.6582 324.36449 190.98555 321.03711 195.11914 321.03711 z M 211.83789 343.62109 A 6.995014 6.9949765 0 0 0 204.84375 350.61719 A 6.995014 6.9949765 0 0 0 211.83789 357.61133 A 6.995014 6.9949765 0 0 0 218.83398 350.61719 A 6.995014 6.9949765 0 0 0 211.83789 343.62109 z M 233.98633 343.62305 C 229.85274 343.62305 226.52344 346.74392 226.52344 350.61914 C 226.52344 354.49436 229.85274 357.61328 233.98633 357.61328 L 243.74023 357.61328 C 247.87382 357.61328 251.20117 354.49436 251.20117 350.61914 C 251.20117 346.74392 247.87382 343.62305 243.74023 343.62305 L 233.98633 343.62305 z "
       transform="matrix(0.26458333,0,0,0.26458333,0,145.00002)"
       id="path4553" />
    <g
       transform="matrix(1.1447043,0,0,1.1446991,-2.1221733,-18.153524)"
       id="g4627">
      <g
         transform="matrix(0.47613811,0,0,0.47613772,41.535979,110.7473)"
         id="g4601"
         clip-path="none"
         mask="none">
        <g
           id="g4552" />
      </g>
      <g
         id="g4618"
         transform="matrix(0.6646382,0,0,0.66463531,24.627732,72.928047)" />
    </g>
  </g>
</svg>
