<?xml version="1.0" encoding="UTF-8" standalone="no"?>
<!-- Created with Inkscape (http://www.inkscape.org/) -->

<svg
   xmlns:dc="http://purl.org/dc/elements/1.1/"
   xmlns:cc="http://creativecommons.org/ns#"
   xmlns:rdf="http://www.w3.org/1999/02/22-rdf-syntax-ns#"
   xmlns:svg="http://www.w3.org/2000/svg"
   xmlns="http://www.w3.org/2000/svg"
   xmlns:sodipodi="http://sodipodi.sourceforge.net/DTD/sodipodi-0.dtd"
   xmlns:inkscape="http://www.inkscape.org/namespaces/inkscape"
   width="152mm"
   height="152mm"
   viewBox="0 0 152 152"
   version="1.1"
   id="svg8"
   sodipodi:docname="payRansomIcon.svg"
   inkscape:version="0.92.3 (2405546, 2018-03-11)">
  <defs
     id="defs2" />
  <sodipodi:namedview
     id="base"
     pagecolor="#ffffff"
     bordercolor="#666666"
     borderopacity="1.0"
     inkscape:pageopacity="0.0"
     inkscape:pageshadow="2"
     inkscape:zoom="0.52803315"
     inkscape:cx="496.52129"
     inkscape:cy="-160.33846"
     inkscape:document-units="mm"
     inkscape:current-layer="layer1"
     showgrid="false"
     showguides="false"
     inkscape:guide-bbox="true"
     inkscape:window-width="1920"
     inkscape:window-height="1027"
     inkscape:window-x="-8"
     inkscape:window-y="-8"
     inkscape:window-maximized="1" />
  <metadata
     id="metadata5">
    <rdf:RDF>
      <cc:Work
         rdf:about="">
        <dc:format>image/svg+xml</dc:format>
        <dc:type
           rdf:resource="http://purl.org/dc/dcmitype/StillImage" />
        <dc:title></dc:title>
      </cc:Work>
    </rdf:RDF>
  </metadata>
  <g
     inkscape:label="Layer 1"
     inkscape:groupmode="layer"
     id="layer1"
     transform="translate(0,-145.00002)">
    <path
       style="opacity:1;fill:#c7f0fa;fill-opacity:1;stroke:none;stroke-width:19.77188873;stroke-linecap:round;stroke-linejoin:miter;stroke-miterlimit:4;stroke-dasharray:none;stroke-opacity:1;paint-order:normal"
       d="M 287.24414,3.7792969 C 130.69077,3.7791461 3.7791461,130.69077 3.7792969,287.24414 3.7791478,443.79751 130.69077,570.70913 287.24414,570.70898 443.79751,570.70913 570.70913,443.79751 570.70898,287.24414 570.70913,130.69077 443.79751,3.7791478 287.24414,3.7792969 Z M 285.35352,100.1582 c 9.44084,0 18.88247,0.43376 25.0332,1.30078 l 8.76367,1.23438 0.20117,14.23047 c 0.23448,16.50882 -0.10202,15.73932 7.80664,17.83594 11.74371,3.11334 26.2919,9.0531 36.63477,14.95703 3.14782,1.79682 6.56292,3.26758 7.58789,3.26758 1.51011,0 3.70303,-1.82673 11.56836,-9.62696 5.33851,-5.29436 9.93068,-9.625 10.20508,-9.625 1.50939,0 13.89755,10.16898 22.61718,18.56641 10.16319,9.78769 24.97461,26.97908 24.97461,28.98828 0,0.28588 -4.33299,4.88574 -9.6289,10.22266 -7.80253,7.86292 -9.62891,10.05678 -9.62891,11.5664 0,1.02463 1.47019,4.43907 3.26758,7.58594 5.90566,10.33969 11.84668,24.88488 14.96094,36.625 2.09729,7.90617 1.32802,7.5684 17.84179,7.80273 l 14.23633,0.20118 1.23438,8.76171 c 1.73457,12.29787 1.73457,37.75288 0,50.05079 l -1.23438,8.75976 -14.23633,0.20117 c -16.51377,0.23407 -15.7445,-0.10151 -17.84179,7.80469 -3.11426,11.74012 -9.05528,26.28336 -14.96094,36.62305 -1.79739,3.14691 -3.26758,6.55931 -3.26758,7.58398 0,1.50962 1.82638,3.70352 9.62891,11.56641 5.29591,5.33696 9.6289,9.92873 9.6289,10.20312 0,1.50894 -10.17422,13.8943 -18.57421,22.61133 -9.79061,10.16009 -26.98633,24.96485 -28.9961,24.96485 -0.286,0 -4.88805,-4.33068 -10.22656,-9.625 -7.86533,-7.80023 -10.05825,-9.62696 -11.56836,-9.62696 -1.02497,0 -4.44007,1.47075 -7.58789,3.26758 -10.34287,5.90392 -24.89106,11.84368 -36.63477,14.95703 -7.90839,2.09654 -7.57231,1.32652 -7.80664,17.82813 l -0.20117,14.22656 -8.09961,1.14062 c -7.63064,1.07509 -33.98187,1.94102 -39.64258,1.30274 -1.27835,-0.14412 -6.26636,-0.74875 -11.08593,-1.3418 l -8.76368,-1.07812 -0.20117,-14.23633 c -0.23437,-16.51616 0.10225,-15.74507 -7.80664,-17.8418 -11.74367,-3.11335 -26.29197,-9.05311 -36.63476,-14.95703 -3.14786,-1.79683 -6.56292,-3.26758 -7.5879,-3.26758 -1.51011,0 -3.70308,1.82673 -11.56835,9.62696 -5.33851,5.29432 -9.93069,9.625 -10.20508,9.625 -1.50943,-10e-6 -13.89756,-10.1709 -22.61719,-18.56836 -10.16315,-9.78766 -24.97461,-26.97717 -24.97461,-28.98633 0,-0.28589 4.33296,-4.88765 9.62891,-10.22461 7.80253,-7.86289 9.6289,-10.05679 9.6289,-11.56641 0,-1.02467 -1.47015,-4.43707 -3.26758,-7.58398 -5.90566,-10.33969 -11.84664,-24.88293 -14.96093,-36.62305 -2.09726,-7.90617 -1.32802,-7.57036 -17.8418,-7.80469 l -14.236328,-0.20117 -1.234374,-8.75976 c -1.734577,-12.29791 -1.734577,-37.75292 0,-50.05079 l 1.234374,-8.76171 14.236328,-0.20118 c 16.51378,-0.23406 15.74454,0.10347 17.8418,-7.80273 3.11429,-11.74012 9.05527,-26.28531 14.96093,-36.625 1.79743,-3.14687 3.26758,-6.56131 3.26758,-7.58594 0,-1.50962 -1.82637,-3.70348 -9.6289,-11.5664 -5.29595,-5.33692 -9.62891,-9.93693 -9.62891,-10.22266 0,-2.0092 14.81146,-19.20059 24.97461,-28.98828 8.71963,-8.39743 21.10776,-18.56641 22.61719,-18.56641 0.27432,0 4.86657,4.33064 10.20508,9.625 7.86527,7.80023 10.05824,9.62696 11.56835,9.62696 1.02498,0 4.44004,-1.47076 7.5879,-3.26758 10.34279,-5.90393 24.89109,-11.84369 36.63476,-14.95703 7.90878,-2.09662 7.57231,-1.32712 7.80664,-17.83594 l 0.20117,-14.23047 8.76368,-1.23438 c 6.15076,-0.86702 15.59036,-1.30078 25.03125,-1.30078 z"
       id="path4553"
       transform="matrix(0.26458333,0,0,0.26458333,0,145.00002)"
       inkscape:connector-curvature="0"
       sodipodi:nodetypes="cccccscccccscscscsccccccccccscscssscccccccccccsccsscscsccccccccscscssscccccs" />
    <path
       style="opacity:1;fill:#c7f0fa;fill-opacity:1;stroke:none;stroke-width:11.67085457;stroke-linecap:butt;stroke-linejoin:miter;stroke-miterlimit:4;stroke-dasharray:none;stroke-opacity:1;paint-order:normal"
       d="M 287.24414 173.85742 A 113.38583 113.38583 0 0 0 173.85742 287.24414 A 113.38583 113.38583 0 0 0 287.24414 400.63086 A 113.38583 113.38583 0 0 0 400.63086 287.24414 A 113.38583 113.38583 0 0 0 287.24414 173.85742 z M 282.71484 207.8418 L 297.96875 211.82617 L 292.54297 232.60547 L 303.31055 235.41797 L 308.73633 214.63672 L 323.99219 218.62109 L 318.43945 239.88086 C 324.07682 241.90008 328.27821 243.98202 331.02148 246.12891 C 335.47702 249.55362 338.58897 253.78768 340.36133 258.82812 C 342.14716 263.81705 342.41594 268.71184 341.16211 273.51367 C 339.84084 278.57366 336.82703 282.61049 332.12305 285.62891 C 327.43254 288.59569 320.16325 290.03716 310.31445 289.94727 C 319.67267 294.87291 325.93322 299.51306 329.09766 303.86914 C 333.65351 310.07778 334.95689 316.92742 333.00195 324.41406 C 330.93916 332.31383 326.05829 338.01473 318.35938 341.51953 C 310.99626 344.80882 301.94832 345.59339 291.26562 343.94531 L 285.33789 366.64648 L 270.08398 362.66211 L 275.88672 340.4375 L 265.11914 337.625 L 259.31641 359.85156 L 244.0625 355.86719 L 249.86523 333.64258 L 228.55078 328.07617 L 231.24023 317.77734 C 236.8179 319.48147 246.16225 320.29088 247.92188 313.44727 L 265.71875 245.29297 C 266.45355 237.11565 259.30426 234.95451 253.2832 233.35938 L 255.97461 223.05664 L 277.28711 228.62305 L 282.71484 207.8418 z M 292.5 242.85547 L 283.64062 276.77734 C 290.97236 278.69181 296.58188 279.27435 300.47266 278.52539 C 316.12267 274.07396 319.83562 259.28159 308.33008 249.38672 C 305.32682 246.94802 300.05177 244.77218 292.5 242.85547 z M 280.12305 290.25391 L 272.29688 320.22656 L 271.20508 324.07617 C 270.86008 327.37084 275.1879 330.1317 278.41602 331.00781 C 315.25203 338.91837 316.49707 309.46747 297.34766 297.14844 C 293.77641 294.56146 288.0362 292.26505 280.12305 290.25391 z "
       transform="matrix(0.26458333,0,0,0.26458333,0,145.00002)"
       id="path1947" />
    <g
       aria-label="B"
       style="font-style:normal;font-variant:normal;font-weight:bold;font-stretch:normal;font-size:22.57777786px;line-height:1.25;font-family:'Times New Roman';-inkscape-font-specification:'Times New Roman, Bold';letter-spacing:0px;word-spacing:0px;fill:#000000;fill-opacity:1;stroke:none;stroke-width:0.26458332"
       id="text1953"
       transform="matrix(1.281658,0.45298693,-0.45298246,1.2816707,84.342277,-93.94923)" />
  </g>
</svg>
