<?xml version="1.0" encoding="UTF-8" standalone="no"?>
<!-- Created with Inkscape (http://www.inkscape.org/) -->

<svg
   xmlns:dc="http://purl.org/dc/elements/1.1/"
   xmlns:cc="http://creativecommons.org/ns#"
   xmlns:rdf="http://www.w3.org/1999/02/22-rdf-syntax-ns#"
   xmlns:svg="http://www.w3.org/2000/svg"
   xmlns="http://www.w3.org/2000/svg"
   xmlns:sodipodi="http://sodipodi.sourceforge.net/DTD/sodipodi-0.dtd"
   xmlns:inkscape="http://www.inkscape.org/namespaces/inkscape"
   width="152mm"
   height="152mm"
   viewBox="0 0 152 152"
   version="1.1"
   id="svg8"
   sodipodi:docname="ransomIcon.svg"
   inkscape:version="0.92.3 (2405546, 2018-03-11)">
  <defs
     id="defs2" />
  <sodipodi:namedview
     id="base"
     pagecolor="#ffffff"
     bordercolor="#666666"
     borderopacity="1.0"
     inkscape:pageopacity="0.0"
     inkscape:pageshadow="2"
     inkscape:zoom="0.49497475"
     inkscape:cx="330.98993"
     inkscape:cy="152.49341"
     inkscape:document-units="mm"
     inkscape:current-layer="layer1"
     showgrid="false"
     showguides="false"
     inkscape:guide-bbox="true"
     inkscape:window-width="1920"
     inkscape:window-height="1027"
     inkscape:window-x="-8"
     inkscape:window-y="-8"
     inkscape:window-maximized="1" />
  <metadata
     id="metadata5">
    <rdf:RDF>
      <cc:Work
         rdf:about="">
        <dc:format>image/svg+xml</dc:format>
        <dc:type
           rdf:resource="http://purl.org/dc/dcmitype/StillImage" />
        <dc:title></dc:title>
      </cc:Work>
    </rdf:RDF>
  </metadata>
  <g
     inkscape:label="Layer 1"
     inkscape:groupmode="layer"
     id="layer1"
     transform="translate(0,-145.00002)">
    <path
       style="opacity:1;fill:#c7f0fa;fill-opacity:1;stroke:none;stroke-width:19.77188873;stroke-linecap:round;stroke-linejoin:miter;stroke-miterlimit:4;stroke-dasharray:none;stroke-opacity:1;paint-order:normal"
       d="M 287.24414,3.7792969 C 130.69077,3.7791461 3.7791461,130.69077 3.7792969,287.24414 3.7791478,443.79751 130.69077,570.70913 287.24414,570.70898 443.79751,570.70913 570.70913,443.79751 570.70898,287.24414 570.70913,130.69077 443.79751,3.7791478 287.24414,3.7792969 Z M 285.35352,100.1582 c 9.44084,0 18.88247,0.43376 25.0332,1.30078 l 8.76367,1.23438 0.20117,14.23047 c 0.23448,16.50882 -0.10202,15.73932 7.80664,17.83594 11.74371,3.11334 26.2919,9.0531 36.63477,14.95703 3.14782,1.79682 6.56292,3.26758 7.58789,3.26758 1.51011,0 3.70303,-1.82673 11.56836,-9.62696 5.33851,-5.29436 9.93068,-9.625 10.20508,-9.625 1.50939,0 13.89755,10.16898 22.61718,18.56641 10.16319,9.78769 24.97461,26.97908 24.97461,28.98828 0,0.28588 -4.33299,4.88574 -9.6289,10.22266 -7.80253,7.86292 -9.62891,10.05678 -9.62891,11.5664 0,1.02463 1.47019,4.43907 3.26758,7.58594 5.90566,10.33969 11.84668,24.88488 14.96094,36.625 2.09729,7.90617 1.32802,7.5684 17.84179,7.80273 l 14.23633,0.20118 1.23438,8.76171 c 1.73457,12.29787 1.73457,37.75288 0,50.05079 l -1.23438,8.75976 -14.23633,0.20117 c -16.51377,0.23407 -15.7445,-0.10151 -17.84179,7.80469 -3.11426,11.74012 -9.05528,26.28336 -14.96094,36.62305 -1.79739,3.14691 -3.26758,6.55931 -3.26758,7.58398 0,1.50962 1.82638,3.70352 9.62891,11.56641 5.29591,5.33696 9.6289,9.92873 9.6289,10.20312 0,1.50894 -10.17422,13.8943 -18.57421,22.61133 -9.79061,10.16009 -26.98633,24.96485 -28.9961,24.96485 -0.286,0 -4.88805,-4.33068 -10.22656,-9.625 -7.86533,-7.80023 -10.05825,-9.62696 -11.56836,-9.62696 -1.02497,0 -4.44007,1.47075 -7.58789,3.26758 -10.34287,5.90392 -24.89106,11.84368 -36.63477,14.95703 -7.90839,2.09654 -7.57231,1.32652 -7.80664,17.82813 l -0.20117,14.22656 -8.09961,1.14062 c -7.63064,1.07509 -33.98187,1.94102 -39.64258,1.30274 -1.27835,-0.14412 -6.26636,-0.74875 -11.08593,-1.3418 l -8.76368,-1.07812 -0.20117,-14.23633 c -0.23437,-16.51616 0.10225,-15.74507 -7.80664,-17.8418 -11.74367,-3.11335 -26.29197,-9.05311 -36.63476,-14.95703 -3.14786,-1.79683 -6.56292,-3.26758 -7.5879,-3.26758 -1.51011,0 -3.70308,1.82673 -11.56835,9.62696 -5.33851,5.29432 -9.93069,9.625 -10.20508,9.625 -1.50943,-10e-6 -13.89756,-10.1709 -22.61719,-18.56836 -10.16315,-9.78766 -24.97461,-26.97717 -24.97461,-28.98633 0,-0.28589 4.33296,-4.88765 9.62891,-10.22461 7.80253,-7.86289 9.6289,-10.05679 9.6289,-11.56641 0,-1.02467 -1.47015,-4.43707 -3.26758,-7.58398 -5.90566,-10.33969 -11.84664,-24.88293 -14.96093,-36.62305 -2.09726,-7.90617 -1.32802,-7.57036 -17.8418,-7.80469 l -14.236328,-0.20117 -1.234374,-8.75976 c -1.734577,-12.29791 -1.734577,-37.75292 0,-50.05079 l 1.234374,-8.76171 14.236328,-0.20118 c 16.51378,-0.23406 15.74454,0.10347 17.8418,-7.80273 3.11429,-11.74012 9.05527,-26.28531 14.96093,-36.625 1.79743,-3.14687 3.26758,-6.56131 3.26758,-7.58594 0,-1.50962 -1.82637,-3.70348 -9.6289,-11.5664 -5.29595,-5.33692 -9.62891,-9.93693 -9.62891,-10.22266 0,-2.0092 14.81146,-19.20059 24.97461,-28.98828 8.71963,-8.39743 21.10776,-18.56641 22.61719,-18.56641 0.27432,0 4.86657,4.33064 10.20508,9.625 7.86527,7.80023 10.05824,9.62696 11.56835,9.62696 1.02498,0 4.44004,-1.47076 7.5879,-3.26758 10.34279,-5.90393 24.89109,-11.84369 36.63476,-14.95703 7.90878,-2.09662 7.57231,-1.32712 7.80664,-17.83594 l 0.20117,-14.23047 8.76368,-1.23438 c 6.15076,-0.86702 15.59036,-1.30078 25.03125,-1.30078 z m -399.03427,82.02539 c -17.95699,0 -33.69719,10.65098 -44.39453,26.23829 -10.549,15.37118 -16.75923,35.80916 -16.92969,58.24414 h -0.55078 c -6.10692,0 -11.02344,4.91651 -11.02344,11.02343 v 84.75391 c 4e-5,6.10685 4.91652,11.02148 11.02344,11.02148 h 124.339842 c 6.10685,0 11.02344,-4.91463 11.02344,-11.02148 v -84.75391 c 0,-6.10692 -4.91659,-11.02343 -11.02344,-11.02343 h -1.13672 c -0.17094,-22.43498 -6.38846,-42.87296 -16.9375,-58.24414 -10.69734,-15.58731 -26.43352,-26.23829 -44.390622,-26.23829 z m 0,17.29688 c 11.14522,0 21.752732,6.52819 30.126952,18.73047 8.23899,12.00521 13.72893,29.23754 13.9043,48.45508 H -157.7081 c 0.17537,-19.21754 5.65945,-36.44987 13.89844,-48.45508 8.37419,-12.20228 18.9838,-18.73047 30.12891,-18.73047 z m 0.64453,97.97461 c 6.65793,10e-6 12.05555,5.39676 12.05664,12.05469 -0.003,4.45041 -2.45757,8.53721 -6.38477,10.63085 0.10999,0.68463 0.17383,1.39715 0.17383,2.13672 v 16.48243 c 0,4.81152 -2.46958,8.68554 -5.53515,8.68554 -3.06577,0 -5.53321,-3.87402 -5.53321,-8.68554 v -16.48243 c 0,-0.63738 0.0465,-1.25586 0.12891,-1.85351 -4.24372,-1.9772 -6.95915,-6.23235 -6.96484,-10.91406 0.001,-6.65869 5.3999,-12.05576 12.05859,-12.05469 z"
       id="path4553"
       transform="matrix(0.26458333,0,0,0.26458333,0,145.00002)"
       inkscape:connector-curvature="0"
       sodipodi:nodetypes="cccccscccccscscscsccccccccccscscssscccccccccccsccsscscsccccccccscscssscccccssscsscsssssccssscccscccsssssccc" />
    <circle
       style="opacity:1;fill:#c7f0fa;fill-opacity:1;stroke:none;stroke-width:3.08791351;stroke-linecap:butt;stroke-linejoin:miter;stroke-miterlimit:4;stroke-dasharray:none;stroke-opacity:1;paint-order:normal"
       id="path1947"
       cx="76"
       cy="221.00002"
       r="30" />
    <g
       aria-label="B"
       style="font-style:normal;font-variant:normal;font-weight:bold;font-stretch:normal;font-size:22.57777786px;line-height:1.25;font-family:'Times New Roman';-inkscape-font-specification:'Times New Roman, Bold';letter-spacing:0px;word-spacing:0px;fill:#000000;fill-opacity:1;stroke:none;stroke-width:0.26458332"
       id="text1953"
       transform="matrix(1.281658,0.45298574,-0.45298246,1.2816673,83.932131,-92.999215)">
      <path
         style="font-style:normal;font-variant:normal;font-weight:bold;font-stretch:normal;font-size:22.57777786px;font-family:'Times New Roman';-inkscape-font-specification:'Times New Roman, Bold';stroke-width:0.26458332"
         d="m 66.51037,209.89156 0.249097,2.94745 -3.023149,0.25549 0.123504,1.46137 c 0.855073,-0.0692 1.882465,-0.11665 2.162344,0.97893 l 0.816962,9.66676 c 0.08559,0.96943 -1.164885,1.29324 -1.967384,1.32794 l 0.12346,1.46086 3.023148,-0.25549 0.266417,3.15239 2.163731,-0.18286 -0.266417,-3.15239 1.52728,-0.12908 0.266416,3.1524 2.163731,-0.18287 -0.272117,-3.21984 c 1.462841,-0.27628 2.601564,-0.79344 3.40674,-1.5585 0.838892,-0.80846 1.211003,-1.77277 1.116308,-2.89326 -0.08974,-1.06189 -0.573247,-1.89154 -1.449793,-2.48866 -0.61084,-0.42042 -1.636708,-0.73552 -3.077982,-0.94563 1.283042,-0.44034 2.160826,-0.9611 2.633751,-1.56162 0.472307,-0.60785 0.678321,-1.27046 0.617667,-1.98816 -0.05756,-0.68108 -0.316929,-1.30436 -0.777794,-1.87023 -0.461481,-0.57318 -1.060126,-0.98023 -1.795876,-1.22045 -0.45476,-0.15288 -1.095749,-0.23045 -1.920462,-0.23392 l -0.254841,-3.01542 -2.163731,0.18286 0.249097,2.94745 -1.527279,0.12907 -0.249097,-2.94745 z m 2.877612,4.09754 c 1.068603,-0.0977 1.853489,-0.0574 2.355402,0.12145 1.948177,0.75684 2.144995,2.84805 0.317059,4.14435 -0.470864,0.27582 -1.225903,0.45781 -2.26583,0.5457 z m 0.56817,6.72291 c 1.119865,-0.10202 1.970662,-0.0673 2.553135,0.10473 3.052029,0.72081 4.241994,4.60223 -0.904405,5.26561 -0.459396,0.0344 -1.147976,-0.12556 -1.254385,-0.56922 l -0.03505,-0.54987 z"
         id="path1955"
         inkscape:connector-curvature="0" />
    </g>
  </g>
</svg>
