<?xml version="1.0" encoding="UTF-8" standalone="no"?>
<!-- Created with Inkscape (http://www.inkscape.org/) -->

<svg
   xmlns:dc="http://purl.org/dc/elements/1.1/"
   xmlns:cc="http://creativecommons.org/ns#"
   xmlns:rdf="http://www.w3.org/1999/02/22-rdf-syntax-ns#"
   xmlns:svg="http://www.w3.org/2000/svg"
   xmlns="http://www.w3.org/2000/svg"
   xmlns:sodipodi="http://sodipodi.sourceforge.net/DTD/sodipodi-0.dtd"
   xmlns:inkscape="http://www.inkscape.org/namespaces/inkscape"
   width="152mm"
   height="152mm"
   viewBox="0 0 152 152"
   version="1.1"
   id="svg8"
   sodipodi:docname="ransomIcon.svg"
   inkscape:version="0.92.3 (2405546, 2018-03-11)">
  <defs
     id="defs2" />
  <sodipodi:namedview
     id="base"
     pagecolor="#ffffff"
     bordercolor="#666666"
     borderopacity="1.0"
     inkscape:pageopacity="0.0"
     inkscape:pageshadow="2"
     inkscape:zoom="0.49497475"
     inkscape:cx="330.98993"
     inkscape:cy="152.49341"
     inkscape:document-units="mm"
     inkscape:current-layer="layer1"
     showgrid="false"
     showguides="true"
     inkscape:guide-bbox="true"
     inkscape:window-width="1920"
     inkscape:window-height="1027"
     inkscape:window-x="-8"
     inkscape:window-y="-8"
     inkscape:window-maximized="1" />
  <metadata
     id="metadata5">
    <rdf:RDF>
      <cc:Work
         rdf:about="">
        <dc:format>image/svg+xml</dc:format>
        <dc:type
           rdf:resource="http://purl.org/dc/dcmitype/StillImage" />
        <dc:title></dc:title>
      </cc:Work>
    </rdf:RDF>
  </metadata>
  <g
     inkscape:label="Layer 1"
     inkscape:groupmode="layer"
     id="layer1"
     transform="translate(0,-145.00002)">
    <path
       style="opacity:1;fill:#c7f0fa;fill-opacity:1;stroke:none;stroke-width:19.77188873;stroke-linecap:round;stroke-linejoin:miter;stroke-miterlimit:4;stroke-dasharray:none;stroke-opacity:1;paint-order:normal"
       d="M 287.24414 3.7792969 A 283.46457 283.46457 0 0 0 3.7792969 287.24414 A 283.46457 283.46457 0 0 0 287.24414 570.70898 A 283.46457 283.46457 0 0 0 570.70898 287.24414 A 283.46457 283.46457 0 0 0 287.24414 3.7792969 z M 285.35352 100.1582 C 294.79436 100.1582 304.23599 100.59196 310.38672 101.45898 L 319.15039 102.69336 L 319.35156 116.92383 C 319.58604 133.43265 319.24954 132.66315 327.1582 134.75977 C 338.90191 137.87311 353.4501 143.81287 363.79297 149.7168 C 366.94079 151.51362 370.35589 152.98438 371.38086 152.98438 C 372.89097 152.98438 375.08389 151.15765 382.94922 143.35742 C 388.28773 138.06306 392.8799 133.73242 393.1543 133.73242 C 394.66369 133.73242 407.05185 143.9014 415.77148 152.29883 C 425.93467 162.08652 440.74609 179.27791 440.74609 181.28711 C 440.74609 181.57299 436.4131 186.17285 431.11719 191.50977 C 423.31466 199.37269 421.48828 201.56655 421.48828 203.07617 C 421.48828 204.1008 422.95847 207.51524 424.75586 210.66211 C 430.66152 221.0018 436.60254 235.54699 439.7168 247.28711 C 441.81409 255.19328 441.04482 254.85551 457.55859 255.08984 L 471.79492 255.29102 L 473.0293 264.05273 C 474.76387 276.3506 474.76387 301.80561 473.0293 314.10352 L 471.79492 322.86328 L 457.55859 323.06445 C 441.04482 323.29852 441.81409 322.96294 439.7168 330.86914 C 436.60254 342.60926 430.66152 357.1525 424.75586 367.49219 C 422.95847 370.6391 421.48828 374.0515 421.48828 375.07617 C 421.48828 376.58579 423.31466 378.77969 431.11719 386.64258 C 436.4131 391.97954 440.74609 396.57131 440.74609 396.8457 C 440.74609 398.35464 430.57187 410.74 422.17188 419.45703 C 412.38127 429.61712 395.18555 444.42188 393.17578 444.42188 C 392.88978 444.42188 388.28773 440.0912 382.94922 434.79688 C 375.08389 426.99665 372.89097 425.16992 371.38086 425.16992 C 370.35589 425.16992 366.94079 426.64067 363.79297 428.4375 C 353.4501 434.34142 338.90191 440.28118 327.1582 443.39453 C 319.24981 445.49107 319.58589 444.72105 319.35156 461.22266 L 319.15039 475.44922 L 311.05078 476.58984 C 303.42014 477.66493 277.06891 478.53086 271.4082 477.89258 C 270.12985 477.74846 265.14184 477.14383 260.32227 476.55078 L 251.55859 475.47266 L 251.35742 461.23633 C 251.12305 444.72017 251.45967 445.49126 243.55078 443.39453 C 231.80711 440.28118 217.25881 434.34142 206.91602 428.4375 C 203.76816 426.64067 200.3531 425.16992 199.32812 425.16992 C 197.81801 425.16992 195.62504 426.99665 187.75977 434.79688 C 182.42126 440.0912 177.82908 444.42188 177.55469 444.42188 C 176.04526 444.42187 163.65713 434.25098 154.9375 425.85352 C 144.77435 416.06586 129.96289 398.87635 129.96289 396.86719 C 129.96289 396.5813 134.29585 391.97954 139.5918 386.64258 C 147.39433 378.77969 149.2207 376.58579 149.2207 375.07617 C 149.2207 374.0515 147.75055 370.6391 145.95312 367.49219 C 140.04746 357.1525 134.10648 342.60926 130.99219 330.86914 C 128.89493 322.96297 129.66417 323.29878 113.15039 323.06445 L 98.914062 322.86328 L 97.679688 314.10352 C 95.945111 301.80561 95.945111 276.3506 97.679688 264.05273 L 98.914062 255.29102 L 113.15039 255.08984 C 129.66417 254.85578 128.89493 255.19331 130.99219 247.28711 C 134.10648 235.54699 140.04746 221.0018 145.95312 210.66211 C 147.75055 207.51524 149.2207 204.1008 149.2207 203.07617 C 149.2207 201.56655 147.39433 199.37269 139.5918 191.50977 C 134.29585 186.17285 129.96289 181.57284 129.96289 181.28711 C 129.96289 179.27791 144.77435 162.08652 154.9375 152.29883 C 163.65713 143.9014 176.04526 133.73242 177.55469 133.73242 C 177.82901 133.73242 182.42126 138.06306 187.75977 143.35742 C 195.62504 151.15765 197.81801 152.98438 199.32812 152.98438 C 200.3531 152.98438 203.76816 151.51362 206.91602 149.7168 C 217.25881 143.81287 231.80711 137.87311 243.55078 134.75977 C 251.45956 132.66315 251.12309 133.43265 251.35742 116.92383 L 251.55859 102.69336 L 260.32227 101.45898 C 266.47303 100.59196 275.91263 100.1582 285.35352 100.1582 z M 282.54883 182.18359 C 264.59184 182.18359 248.85164 192.83457 238.1543 208.42188 C 227.6053 223.79306 221.39507 244.23104 221.22461 266.66602 L 220.67383 266.66602 C 214.56691 266.66602 209.65039 271.58253 209.65039 277.68945 L 209.65039 362.44336 C 209.65043 368.55021 214.56691 373.46484 220.67383 373.46484 L 345.01367 373.46484 C 351.12052 373.46484 356.03711 368.55021 356.03711 362.44336 L 356.03711 277.68945 C 356.03711 271.58253 351.12052 266.66602 345.01367 266.66602 L 343.87695 266.66602 C 343.70601 244.23104 337.48849 223.79306 326.93945 208.42188 C 316.24211 192.83457 300.50593 182.18359 282.54883 182.18359 z M 282.54883 199.48047 C 293.69405 199.48047 304.30156 206.00866 312.67578 218.21094 C 320.91477 230.21615 326.40471 247.44848 326.58008 266.66602 L 238.52148 266.66602 C 238.69685 247.44848 244.18093 230.21615 252.41992 218.21094 C 260.79411 206.00866 271.40372 199.48047 282.54883 199.48047 z M 283.19336 297.45508 A 12.056661 12.056666 0 0 1 295.25 309.50977 A 12.056661 12.056666 0 0 1 288.86523 320.14062 C 288.97522 320.82525 289.03906 321.53777 289.03906 322.27734 L 289.03906 338.75977 C 289.03906 343.57129 286.56948 347.44531 283.50391 347.44531 C 280.43814 347.44531 277.9707 343.57129 277.9707 338.75977 L 277.9707 322.27734 C 277.9707 321.63996 278.01722 321.02148 278.09961 320.42383 A 12.056661 12.056666 0 0 1 271.13477 309.50977 A 12.056661 12.056666 0 0 1 283.19336 297.45508 z "
       transform="matrix(0.26458333,0,0,0.26458333,0,145.00002)"
       id="path4553" />
  </g>
</svg>
