<?xml version="1.0" encoding="UTF-8" standalone="no"?>
<!-- Created with Inkscape (http://www.inkscape.org/) -->

<svg
   xmlns:dc="http://purl.org/dc/elements/1.1/"
   xmlns:cc="http://creativecommons.org/ns#"
   xmlns:rdf="http://www.w3.org/1999/02/22-rdf-syntax-ns#"
   xmlns:svg="http://www.w3.org/2000/svg"
   xmlns="http://www.w3.org/2000/svg"
   xmlns:sodipodi="http://sodipodi.sourceforge.net/DTD/sodipodi-0.dtd"
   xmlns:inkscape="http://www.inkscape.org/namespaces/inkscape"
   width="153.177mm"
   height="152mm"
   viewBox="0 0 153.177 152"
   version="1.1"
   id="svg8"
   sodipodi:docname="serverIcon.svg"
   inkscape:version="0.92.3 (2405546, 2018-03-11)">
  <defs
     id="defs2" />
  <sodipodi:namedview
     id="base"
     pagecolor="#ffffff"
     bordercolor="#666666"
     borderopacity="1.0"
     inkscape:pageopacity="0.0"
     inkscape:pageshadow="2"
     inkscape:zoom="1.4"
     inkscape:cx="323.32809"
     inkscape:cy="309.62918"
     inkscape:document-units="mm"
     inkscape:current-layer="layer1"
     showgrid="false"
     showguides="true"
     inkscape:guide-bbox="true"
     inkscape:window-width="1920"
     inkscape:window-height="1027"
     inkscape:window-x="-8"
     inkscape:window-y="-8"
     inkscape:window-maximized="1" />
  <metadata
     id="metadata5">
    <rdf:RDF>
      <cc:Work
         rdf:about="">
        <dc:format>image/svg+xml</dc:format>
        <dc:type
           rdf:resource="http://purl.org/dc/dcmitype/StillImage" />
        <dc:title></dc:title>
      </cc:Work>
    </rdf:RDF>
  </metadata>
  <g
     inkscape:label="Layer 1"
     inkscape:groupmode="layer"
     id="layer1"
     transform="translate(0,-145.00002)">
    <g
       id="g4601"
       transform="matrix(1.7697571,0,0,1.7697571,-51.510564,-166.56497)">
      <path
         id="rect4582"
         transform="matrix(0.26458333,0,0,0.26458333,0,145.00002)"
         d="m 124.23828,119.48828 c -6.70035,0 -12.0957,5.3934 -12.0957,12.09375 v 69.38281 c 0,6.70036 5.39535,12.09571 12.0957,12.09571 H 422.90625 C 429.6066,213.06055 435,207.6652 435,200.96484 v -69.38281 c 0,-6.70035 -5.3934,-12.09375 -12.09375,-12.09375 z m 27.09961,36.60742 a 11.338583,11.338583 0 0 1 11.33984,11.33985 11.338583,11.338583 0 0 1 -11.33984,11.33789 A 11.338583,11.338583 0 0 1 140,167.43555 11.338583,11.338583 0 0 1 151.33789,156.0957 Z m 35.90039,0.002 h 15.81055 c 6.70035,0 12.09375,5.05827 12.09375,11.33984 0,6.28157 -5.3934,11.33789 -12.09375,11.33789 h -15.81055 c -6.70035,0 -12.0957,-5.05632 -12.0957,-11.33789 0,-6.28157 5.39535,-11.33984 12.0957,-11.33984 z"
         style="opacity:1;fill:#000000;fill-opacity:1;stroke:none;stroke-width:18.89763832;stroke-linecap:round;stroke-linejoin:miter;stroke-miterlimit:4;stroke-dasharray:none;stroke-opacity:1;paint-order:normal"
         inkscape:connector-curvature="0" />
      <path
         inkscape:connector-curvature="0"
         style="opacity:1;fill:#000000;fill-opacity:1;stroke:none;stroke-width:5;stroke-linecap:round;stroke-linejoin:miter;stroke-miterlimit:4;stroke-dasharray:none;stroke-opacity:1;paint-order:normal"
         d="m 32.871378,206.61436 c -1.772801,0 -3.200321,1.427 -3.200321,3.1998 v 18.35754 c 0,1.7728 1.42752,3.20032 3.200321,3.20032 h 79.022562 c 1.7728,0 3.19981,-1.42752 3.19981,-3.20032 v -18.35754 c 0,-1.7728 -1.42701,-3.1998 -3.19981,-3.1998 z m 7.170105,9.68571 a 3,3 0 0 1 3.000333,3.00034 3,3 0 0 1 -3.000333,2.99981 3,3 0 0 1 -2.999817,-2.99981 3,3 0 0 1 2.999817,-3.00034 z m 9.498645,5.2e-4 h 4.183208 c 1.772801,0 3.199804,1.33833 3.199804,3.00033 0,1.662 -1.427003,2.99982 -3.199804,2.99982 h -4.183208 c -1.772801,0 -3.200321,-1.33782 -3.200321,-2.99982 0,-1.662 1.42752,-3.00033 3.200321,-3.00033 z"
         id="path4594" />
      <path
         id="path4596"
         d="m 32.871378,236.61436 c -1.772801,0 -3.200321,1.427 -3.200321,3.1998 v 18.35754 c 0,1.7728 1.42752,3.20032 3.200321,3.20032 h 79.022562 c 1.7728,0 3.19981,-1.42752 3.19981,-3.20032 v -18.35754 c 0,-1.7728 -1.42701,-3.1998 -3.19981,-3.1998 z m 7.170105,9.68571 a 3,3 0 0 1 3.000333,3.00034 3,3 0 0 1 -3.000333,2.99981 3,3 0 0 1 -2.999817,-2.99981 3,3 0 0 1 2.999817,-3.00034 z m 9.498645,5.2e-4 h 4.183208 c 1.772801,0 3.199804,1.33833 3.199804,3.00033 0,1.662 -1.427003,2.99982 -3.199804,2.99982 h -4.183208 c -1.772801,0 -3.200321,-1.33782 -3.200321,-2.99982 0,-1.662 1.42752,-3.00033 3.200321,-3.00033 z"
         style="opacity:1;fill:#000000;fill-opacity:1;stroke:none;stroke-width:5;stroke-linecap:round;stroke-linejoin:miter;stroke-miterlimit:4;stroke-dasharray:none;stroke-opacity:1;paint-order:normal"
         inkscape:connector-curvature="0" />
    </g>
  </g>
</svg>
