<?xml version="1.0" encoding="UTF-8" standalone="no"?>
<!-- Created with Inkscape (http://www.inkscape.org/) -->

<svg
   xmlns:dc="http://purl.org/dc/elements/1.1/"
   xmlns:cc="http://creativecommons.org/ns#"
   xmlns:rdf="http://www.w3.org/1999/02/22-rdf-syntax-ns#"
   xmlns:svg="http://www.w3.org/2000/svg"
   xmlns="http://www.w3.org/2000/svg"
   xmlns:sodipodi="http://sodipodi.sourceforge.net/DTD/sodipodi-0.dtd"
   xmlns:inkscape="http://www.inkscape.org/namespaces/inkscape"
   width="152mm"
   height="152mm"
   viewBox="0 0 152 152"
   version="1.1"
   id="svg8"
   sodipodi:docname="serverActionIcon.svg"
   inkscape:version="0.92.4 (5da689c313, 2019-01-14)">
  <defs
     id="defs2" />
  <sodipodi:namedview
     id="base"
     pagecolor="#ffffff"
     bordercolor="#666666"
     borderopacity="1.0"
     inkscape:pageopacity="0.0"
     inkscape:pageshadow="2"
     inkscape:zoom="0.98994949"
     inkscape:cx="193.44843"
     inkscape:cy="439.56613"
     inkscape:document-units="mm"
     inkscape:current-layer="g4601"
     showgrid="false"
     showguides="true"
     inkscape:guide-bbox="true"
     inkscape:window-width="1920"
     inkscape:window-height="1027"
     inkscape:window-x="-8"
     inkscape:window-y="-8"
     inkscape:window-maximized="1" />
  <metadata
     id="metadata5">
    <rdf:RDF>
      <cc:Work
         rdf:about="">
        <dc:format>image/svg+xml</dc:format>
        <dc:type
           rdf:resource="http://purl.org/dc/dcmitype/StillImage" />
        <dc:title></dc:title>
      </cc:Work>
    </rdf:RDF>
  </metadata>
  <g
     inkscape:label="Layer 1"
     inkscape:groupmode="layer"
     id="layer1"
     transform="translate(0,-145.00002)">
    <circle
       style="opacity:1;fill:#c7f0fa;fill-opacity:1;stroke:none;stroke-width:5.23131227;stroke-linecap:round;stroke-linejoin:miter;stroke-miterlimit:4;stroke-dasharray:none;stroke-opacity:1;paint-order:normal"
       id="path4553"
       cx="76"
       cy="221.00002"
       r="75" />
    <g
       id="g4627">
      <g
         transform="matrix(0.98056207,0,0,0.98056205,1.9766869,5.1211047)"
         id="g4601">
        <path
           inkscape:connector-curvature="0"
           style="opacity:1;fill:#000000;fill-opacity:1;stroke:none;stroke-width:18.89763832;stroke-linecap:round;stroke-linejoin:miter;stroke-miterlimit:4;stroke-dasharray:none;stroke-opacity:1;paint-order:normal"
           d="m 124.23828,119.48828 c -6.70035,0 -12.0957,5.3934 -12.0957,12.09375 v 69.38281 c 0,6.70036 5.39535,12.09571 12.0957,12.09571 H 422.90625 C 429.6066,213.06055 435,207.6652 435,200.96484 v -69.38281 c 0,-6.70035 -5.3934,-12.09375 -12.09375,-12.09375 z m 27.09961,36.60742 a 11.338583,11.338583 0 0 1 11.33984,11.33985 11.338583,11.338583 0 0 1 -11.33984,11.33789 A 11.338583,11.338583 0 0 1 140,167.43555 11.338583,11.338583 0 0 1 151.33789,156.0957 Z m 35.90039,0.002 h 15.81055 c 6.70035,0 12.09375,5.05827 12.09375,11.33984 0,6.28157 -5.3934,11.33789 -12.09375,11.33789 h -15.81055 c -6.70035,0 -12.0957,-5.05632 -12.0957,-11.33789 0,-6.28157 5.39535,-11.33984 12.0957,-11.33984 z"
           transform="matrix(0.26458333,0,0,0.26458333,0,145.00002)"
           id="rect4582" />
        <path
           sodipodi:nodetypes="sssscccsssccccssccccccscssssscscccscssscs"
           inkscape:connector-curvature="0"
           id="path4594"
           transform="matrix(0.26458333,0,0,0.26458333,0,145.00002)"
           d="m 124.23828,232.87305 c -6.70035,0 -12.0957,5.3934 -12.0957,12.09375 v 69.38281 c 0,6.70035 5.39535,12.0957 12.0957,12.0957 h 248.1582 c 14.0446,-14.45788 33.41897,-22.64133 53.67579,-22.67187 2.98514,0.0196 5.96641,0.21659 8.92773,0.58984 V 244.9668 c 0,-6.70035 -5.3934,-12.09375 -12.09375,-12.09375 z m 261.52149,206.95898 c -29.91018,-15.7178 -44.05989,-61.64687 -29.37668,-93.57064 H 124.23685 c -6.70033,0.0155 -12.09427,5.39178 -12.09427,12.09213 v 69.38281 c 0,6.70034 5.39535,12.0957 12.0957,12.0957 z M 151.33789,269.48047 c 6.26311,-6.9e-4 11.34053,5.07673 11.33984,11.33984 -3.8e-4,6.26235 -5.07749,11.33858 -11.33984,11.33789 -6.26159,-3.8e-4 -11.33751,-5.0763 -11.33789,-11.33789 -6.9e-4,-6.26235 5.07554,-11.33946 11.33789,-11.33984 z m 35.90039,0.002 h 15.81055 c 6.70035,0 12.09375,5.05827 12.09375,11.33985 0,6.28157 -5.3934,11.33789 -12.09375,11.33789 h -15.81055 c -6.70035,0 -12.0957,-5.05632 -12.0957,-11.33789 0,-6.28158 5.39535,-11.33985 12.0957,-11.33985 z m -35.90039,113.38477 c 6.26311,-6.9e-4 11.34053,5.07673 11.33984,11.33984 -3.8e-4,6.26235 -5.07749,11.33858 -11.33984,11.33789 -6.26159,-3.8e-4 -11.33751,-5.0763 -11.33789,-11.33789 -6.9e-4,-6.26235 5.07554,-11.33946 11.33789,-11.33984 z m 35.90039,0.002 h 15.81055 c 6.70035,0 12.09375,5.05827 12.09375,11.33984 0,6.28158 -5.3934,11.33789 -12.09375,11.3379 h -15.81055 c -6.70035,0 -12.0957,-5.05632 -12.0957,-11.3379 0,-6.28157 5.39535,-11.33984 12.0957,-11.33984 z"
           style="opacity:1;fill:#000000;fill-opacity:1;stroke:none;stroke-width:18.89763832;stroke-linecap:round;stroke-linejoin:miter;stroke-miterlimit:4;stroke-dasharray:none;stroke-opacity:1;paint-order:normal" />
      </g>
      <g
         id="g4618">
        <text
           xml:space="preserve"
           style="font-style:normal;font-variant:normal;font-weight:bold;font-stretch:normal;font-size:41.51046371px;line-height:1.25;font-family:'Noto Sans';-inkscape-font-specification:'Noto Sans Bold';letter-spacing:0px;word-spacing:0px;fill:#ff0000;fill-opacity:1;stroke:none;stroke-width:0.25944033"
           x="-124.6474"
           y="258.91061"
           id="text4605"
           transform="scale(-1,0.99999999)"><tspan
             sodipodi:role="line"
             id="tspan4603"
             x="-124.6474"
             y="258.91061"
             style="font-style:normal;font-variant:normal;font-weight:bold;font-stretch:normal;font-size:41.51046371px;font-family:'Noto Sans';-inkscape-font-specification:'Noto Sans Bold';fill:#ff0000;fill-opacity:1;stroke-width:0.25944033">+</tspan></text>
        <ellipse
           style="opacity:1;fill:none;fill-opacity:1;stroke:#1697a5;stroke-width:5.01599646;stroke-linecap:round;stroke-linejoin:miter;stroke-miterlimit:4;stroke-dasharray:none;stroke-opacity:1;paint-order:normal"
           id="path4611"
           cx="-112.93058"
           cy="245.31841"
           rx="15.632401"
           ry="15.6324"
           transform="scale(-1,1)" />
      </g>
    </g>
  </g>
</svg>
