<?xml version="1.0" encoding="UTF-8" standalone="no"?>
<!-- Created with Inkscape (http://www.inkscape.org/) -->

<svg
   xmlns:dc="http://purl.org/dc/elements/1.1/"
   xmlns:cc="http://creativecommons.org/ns#"
   xmlns:rdf="http://www.w3.org/1999/02/22-rdf-syntax-ns#"
   xmlns:svg="http://www.w3.org/2000/svg"
   xmlns="http://www.w3.org/2000/svg"
   xmlns:sodipodi="http://sodipodi.sourceforge.net/DTD/sodipodi-0.dtd"
   xmlns:inkscape="http://www.inkscape.org/namespaces/inkscape"
   width="152mm"
   height="152mm"
   viewBox="0 0 152 152"
   version="1.1"
   id="svg8"
   sodipodi:docname="serverActionCircle.svg"
   inkscape:version="0.92.3 (2405546, 2018-03-11)">
  <defs
     id="defs2" />
  <sodipodi:namedview
     id="base"
     pagecolor="#ffffff"
     bordercolor="#666666"
     borderopacity="1.0"
     inkscape:pageopacity="0.0"
     inkscape:pageshadow="2"
     inkscape:zoom="0.49497475"
     inkscape:cx="330.98993"
     inkscape:cy="152.49341"
     inkscape:document-units="mm"
     inkscape:current-layer="layer1"
     showgrid="false"
     showguides="true"
     inkscape:guide-bbox="true"
     inkscape:window-width="1920"
     inkscape:window-height="1027"
     inkscape:window-x="-8"
     inkscape:window-y="-8"
     inkscape:window-maximized="1" />
  <metadata
     id="metadata5">
    <rdf:RDF>
      <cc:Work
         rdf:about="">
        <dc:format>image/svg+xml</dc:format>
        <dc:type
           rdf:resource="http://purl.org/dc/dcmitype/StillImage" />
        <dc:title></dc:title>
      </cc:Work>
    </rdf:RDF>
  </metadata>
  <g
     inkscape:label="Layer 1"
     inkscape:groupmode="layer"
     id="layer1"
     transform="translate(0,-145.00002)">
    <path
       id="path4553"
       transform="matrix(0.26458333,0,0,0.26458333,0,145.00002)"
       style="opacity:1;fill:#c7f0fa;fill-opacity:1;stroke:none;stroke-width:19.77188873;stroke-linecap:round;stroke-linejoin:miter;stroke-miterlimit:4;stroke-dasharray:none;stroke-opacity:1;paint-order:normal"
       d="M 287.24414,3.7792969 A 283.46457,283.46457 0 0 0 3.7792969,287.24414 283.46457,283.46457 0 0 0 287.24414,570.70898 283.46457,283.46457 0 0 0 570.70898,287.24414 283.46457,283.46457 0 0 0 287.24414,3.7792969 Z m 27.5,299.5292931 c 1.2406,-0.0697 2.75063,0.56644 4.20898,2.22657 0.24669,0.28082 4.83804,5.5003 5.16407,5.88672 0.81935,0.97106 1.55495,2.01203 2.40429,2.95703 2.14964,2.39164 2.24251,2.04324 4.51172,4.22656 0.84074,0.80893 1.62233,1.67518 2.4336,2.51367 3.15291,2.85997 7.10766,5.01395 9.69336,8.48242 0.41285,0.55382 0.72879,1.17326 1.09375,1.75977 0.0127,0.0243 0.0505,0.0642 0.0684,0.0918 0.14463,0.14807 0.31483,0.35137 0.41796,0.44922 1.39392,1.32193 1.60534,2.53674 1.86719,4.34766 -0.22038,3.22088 0.43763,-0.22842 -1.17773,-1.40234 -5.72022,-4.15684 4.60804,9.30583 -2.02344,6.85156 -0.42112,-0.15572 -0.88672,-0.22456 -1.26367,-0.46875 -1.52745,-0.98876 -3.13217,-2.36723 -2.66211,-4.50391 0.19249,0.20674 0.37082,0.42896 0.57422,0.625 0.0261,0.0265 -0.0826,-0.0939 -0.0469,-0.0996 0.0566,-0.008 0.19252,0.12481 0.15235,0.084 -2.00981,-2.03898 -1.32115,-0.90113 -2.11524,-2.44336 -0.43497,-1.12634 -1.62978,-2.14232 -2.49219,-2.92578 -2.3042,-2.09326 -4.98591,-3.73414 -7.23437,-5.89649 -4.63138,-4.85272 0.81572,0.74095 -4.59375,-4.41406 -3.58194,-3.41344 -6.45632,-7.4521 -9.82227,-11.07031 -3.31117,-3.55933 -1.88752,-7.12405 0.8418,-7.27735 z" />
    <circle
       style="opacity:1;fill:#ffffff;fill-opacity:1;stroke:none;stroke-width:1.11322451;stroke-linecap:round;stroke-linejoin:round;stroke-miterlimit:4;stroke-dasharray:none;stroke-opacity:1;paint-order:normal"
       id="path821"
       cx="64.96608"
       cy="204.85844"
       r="27.5" />
    <path
       style="fill:#ff0000;fill-opacity:1;fill-rule:nonzero;stroke:none"
       id="path823"
       d="m 84.3899,225.83929 c 0.06527,0.0743 1.279622,1.45559 1.365883,1.55783 0.216786,0.25693 0.411729,0.5323 0.636452,0.78233 0.568758,0.63279 0.5933,0.54036 1.193696,1.11803 0.222444,0.21403 0.429299,0.44368 0.643948,0.66553 0.834209,0.7567 1.88022,1.32644 2.564352,2.24414 0.109235,0.14653 0.193121,0.31035 0.289682,0.46553 0.04664,0.0894 0.240609,0.27349 0.139915,0.26819 -0.110427,-0.006 -0.181502,-0.16078 -0.191471,-0.27091 -0.007,-0.0769 0.124095,0.0926 0.180146,0.14578 0.368807,0.34976 0.424788,0.67128 0.49407,1.15042 -0.05831,0.85219 0.115549,-0.0602 -0.311849,-0.3708 -1.513475,-1.09983 1.219418,2.46188 -0.535162,1.81252 v 0 c -0.111422,-0.0412 -0.234531,-0.0591 -0.334267,-0.12371 -0.404138,-0.26161 -0.828743,-0.62633 -0.704374,-1.19166 0.05093,0.0547 0.0979,0.11323 0.151715,0.1651 0.0069,0.007 -0.02145,-0.0246 -0.012,-0.0261 0.01497,-0.002 0.05051,0.0326 0.03988,0.0218 -0.53176,-0.53948 -0.349358,-0.2384 -0.559461,-0.64645 -0.115085,-0.29801 -0.431425,-0.56663 -0.659603,-0.77392 -0.609654,-0.55384 -1.318961,-0.98791 -1.913865,-1.56003 -1.225385,-1.28395 0.215804,0.19598 -1.215452,-1.16795 -0.947721,-0.90314 -1.708013,-1.972 -2.598586,-2.92932 -1.274301,-1.3698 0.101602,-2.74191 1.336348,-1.33634 z"
       inkscape:connector-curvature="0" />
    <path
       style="fill:#ff0000;fill-opacity:1;fill-rule:nonzero;stroke:none;stroke-width:3.77952766"
       d="M 314.74414 303.30859 C 312.01482 303.46189 310.59117 307.02661 313.90234 310.58594 C 317.26829 314.20415 320.14267 318.24281 323.72461 321.65625 C 329.13408 326.81126 323.68698 321.21759 328.31836 326.07031 C 330.56682 328.23266 333.24853 329.87354 335.55273 331.9668 C 336.41514 332.75026 337.60995 333.76624 338.04492 334.89258 C 338.83901 336.43481 338.15035 335.29696 340.16016 337.33594 C 340.20033 337.37676 340.06439 337.24439 340.00781 337.25195 C 339.9721 337.25762 340.08077 337.37802 340.05469 337.35156 C 339.85129 337.15552 339.67296 336.9333 339.48047 336.72656 C 339.01041 338.86324 340.61513 340.24171 342.14258 341.23047 C 342.51953 341.47466 342.98513 341.5435 343.40625 341.69922 C 350.03773 344.15349 339.70947 330.69082 345.42969 334.84766 C 347.04505 336.02158 346.38704 339.47088 346.60742 336.25 C 346.34557 334.43908 346.13415 333.22427 344.74023 331.90234 C 344.6371 331.80449 344.4669 331.60119 344.32227 331.45312 C 344.30446 331.42554 344.26658 331.38562 344.25391 331.36133 C 343.88895 330.77482 343.57301 330.15538 343.16016 329.60156 C 340.57446 326.13309 336.61971 323.97911 333.4668 321.11914 C 332.65553 320.28065 331.87394 319.4144 331.0332 318.60547 C 328.76399 316.42215 328.67112 316.77055 326.52148 314.37891 C 325.67214 313.43391 324.93654 312.39295 324.11719 311.42188 C 323.79116 311.03546 319.19981 305.81598 318.95312 305.53516 C 317.49476 303.87503 315.98474 303.23891 314.74414 303.30859 z "
       transform="matrix(0.26458333,0,0,0.26458333,0,145.00002)"
       id="path830" />
  </g>
</svg>
